<?xml version="1.0" encoding="UTF-8"?><svg viewBox="0 0 384.97 384.97" xmlns="http://www.w3.org/2000/svg" xmlns:xlink="http://www.w3.org/1999/xlink"><style>:root>svg{display:none}:root>svg:target{display:block}</style><svg viewBox="0 0 28 28" id="grid" xmlns="http://www.w3.org/2000/svg"><path d="M10.75 15A2.25 2.25 0 0113 17.25v5.5A2.25 2.25 0 0110.75 25h-5.5A2.25 2.25 0 013 22.75v-5.5A2.25 2.25 0 015.25 15h5.5zm12 0A2.25 2.25 0 0125 17.25v5.5A2.25 2.25 0 0122.75 25h-5.5A2.25 2.25 0 0115 22.75v-5.5A2.25 2.25 0 0117.25 15h5.5zm-12-12A2.25 2.25 0 0113 5.25v5.5A2.25 2.25 0 0110.75 13h-5.5A2.25 2.25 0 013 10.75v-5.5A2.25 2.25 0 015.25 3h5.5zm12 0A2.25 2.25 0 0125 5.25v5.5A2.25 2.25 0 0122.75 13h-5.5A2.25 2.25 0 0115 10.75v-5.5A2.25 2.25 0 0117.25 3h5.5z" fill-rule="nonzero"/></svg><svg viewBox="0 0 384.97 384.97" id="list" xmlns="http://www.w3.org/2000/svg"><path d="M12.03 84.212h360.909c6.641 0 12.03-5.39 12.03-12.03 0-6.641-5.39-12.03-12.03-12.03H12.03C5.39 60.152 0 65.541 0 72.182c0 6.641 5.39 12.03 12.03 12.03zM372.939 180.455H12.03c-6.641 0-12.03 5.39-12.03 12.03s5.39 12.03 12.03 12.03h360.909c6.641 0 12.03-5.39 12.03-12.03s-5.389-12.03-12.03-12.03zM372.939 300.758H12.03c-6.641 0-12.03 5.39-12.03 12.03 0 6.641 5.39 12.03 12.03 12.03h360.909c6.641 0 12.03-5.39 12.03-12.03.001-6.641-5.389-12.03-12.03-12.03z"/></svg></svg>