<?xml version="1.0" encoding="iso-8859-1"?><!DOCTYPE svg  PUBLIC '-//W3C//DTD SVG 1.1//EN'  'http://www.w3.org/Graphics/SVG/1.1/DTD/svg11.dtd'><svg viewBox="0 0 512 512" xmlns="http://www.w3.org/2000/svg" xmlns:xlink="http://www.w3.org/1999/xlink"><style>:root>svg{display:none}:root>svg:target{display:block}</style><svg viewBox="0 0 486.975 486.975" id="back" xmlns="http://www.w3.org/2000/svg"><path d="M473.475 230.025h-427.4l116-116c5.3-5.3 5.3-13.8 0-19.1-5.3-5.3-13.8-5.3-19.1 0l-139 139c-5.3 5.3-5.3 13.8 0 19.1l139 139c2.6 2.6 6.1 4 9.5 4s6.9-1.3 9.5-4c5.3-5.3 5.3-13.8 0-19.1l-116-116h427.5c7.5 0 13.5-6 13.5-13.5s-6-13.4-13.5-13.4z"/></svg><svg viewBox="0 0 511.999 511.999" id="chevron" xmlns="http://www.w3.org/2000/svg"><path d="M172.548 256.005L388.82 39.729c9.089-9.089 9.089-23.824 0-32.912s-23.824-9.089-32.912.002L123.18 239.551a23.26 23.26 0 00-6.817 16.454 23.275 23.275 0 006.817 16.457l232.727 232.721c4.543 4.544 10.499 6.816 16.455 6.816s11.913-2.271 16.457-6.817c9.089-9.089 9.089-23.824 0-32.912L172.548 256.005z"/></svg><svg viewBox="0 0 28 28" id="grid" xmlns="http://www.w3.org/2000/svg"><path d="M10.75 15A2.25 2.25 0 0113 17.25v5.5A2.25 2.25 0 0110.75 25h-5.5A2.25 2.25 0 013 22.75v-5.5A2.25 2.25 0 015.25 15h5.5zm12 0A2.25 2.25 0 0125 17.25v5.5A2.25 2.25 0 0122.75 25h-5.5A2.25 2.25 0 0115 22.75v-5.5A2.25 2.25 0 0117.25 15h5.5zm-12-12A2.25 2.25 0 0113 5.25v5.5A2.25 2.25 0 0110.75 13h-5.5A2.25 2.25 0 013 10.75v-5.5A2.25 2.25 0 015.25 3h5.5zm12 0A2.25 2.25 0 0125 5.25v5.5A2.25 2.25 0 0122.75 13h-5.5A2.25 2.25 0 0115 10.75v-5.5A2.25 2.25 0 0117.25 3h5.5z" fill-rule="nonzero"/></svg><svg viewBox="0 0 32 32" id="home" xmlns="http://www.w3.org/2000/svg"><path d="M16 2.594l-.719.687-13 13L3.72 17.72 5 16.437V28h9V18h4v10h9V16.437l1.281 1.282 1.438-1.438-13-13zm0 2.844l9 9V26h-5V16h-8v10H7V14.437z"/></svg><svg viewBox="0 0 384.97 384.97" id="list" xmlns="http://www.w3.org/2000/svg"><path d="M12.03 84.212h360.909c6.641 0 12.03-5.39 12.03-12.03 0-6.641-5.39-12.03-12.03-12.03H12.03C5.39 60.152 0 65.541 0 72.182c0 6.641 5.39 12.03 12.03 12.03zM372.939 180.455H12.03c-6.641 0-12.03 5.39-12.03 12.03s5.39 12.03 12.03 12.03h360.909c6.641 0 12.03-5.39 12.03-12.03s-5.389-12.03-12.03-12.03zM372.939 300.758H12.03c-6.641 0-12.03 5.39-12.03 12.03 0 6.641 5.39 12.03 12.03 12.03h360.909c6.641 0 12.03-5.39 12.03-12.03.001-6.641-5.389-12.03-12.03-12.03z"/></svg><svg viewBox="0 0 384.97 384.97" id="menu" xmlns="http://www.w3.org/2000/svg"><path d="M12.03 84.212h360.909c6.641 0 12.03-5.39 12.03-12.03 0-6.641-5.39-12.03-12.03-12.03H12.03C5.39 60.152 0 65.541 0 72.182c0 6.641 5.39 12.03 12.03 12.03zM372.939 180.455H12.03c-6.641 0-12.03 5.39-12.03 12.03s5.39 12.03 12.03 12.03h360.909c6.641 0 12.03-5.39 12.03-12.03s-5.389-12.03-12.03-12.03zM372.939 300.758H12.03c-6.641 0-12.03 5.39-12.03 12.03 0 6.641 5.39 12.03 12.03 12.03h360.909c6.641 0 12.03-5.39 12.03-12.03.001-6.641-5.389-12.03-12.03-12.03z"/></svg><svg viewBox="0 0 301 201" id="ru" xmlns="http://www.w3.org/2000/svg"><g fill="none"><path fill="#FFF" d="M.5.5h300v100H.5z"/><path fill="#D52B1E" d="M.5 100.5h300v100H.5z"/><path fill="#0039A6" d="M.5 67.166h300v66.667H.5z"/></g></svg><svg viewBox="0 0 301 201" id="ua" xmlns="http://www.w3.org/2000/svg"><g fill="none"><path fill="#005BBB" d="M.5.5h300v200H.5z"/><path fill="#FFD500" d="M.5 100.5h300v100H.5z"/></g></svg><svg viewBox="0 0 300 159" id="us" xmlns="http://www.w3.org/2000/svg"><g fill="none"><path fill="#FFF" d="M0 .552h300v157.895H0z"/><path fill="#B22234" d="M0 .552h300v12.146H0zm0 24.292h300V36.99H0zm0 24.291h300v12.146H0zm0 24.292h300v12.146H0zm0 24.291h300v12.146H0zm0 24.292h300v12.146H0zm0 24.291h300v12.146H0z"/><path fill="#3C3B6E" d="M0 .552h120v85.02H0z"/><path fill="#FFF" d="M5.638 7.454l2.859 2.077-1.092 3.361 2.858-2.077 2.859 2.077-1.092-3.361 2.858-2.077h-3.533l-1.092-3.36-1.092 3.36zm19.895 0l2.858 2.077-1.092 3.361 2.859-2.077 2.859 2.077-1.092-3.361 2.858-2.077H31.25l-1.092-3.36-1.092 3.36zm19.895 0l2.858 2.077-1.092 3.361 2.859-2.077 2.858 2.077-1.092-3.361 2.859-2.077h-3.533l-1.092-3.36-1.092 3.36zm19.895 0l2.858 2.077-1.092 3.361 2.859-2.077 2.858 2.077-1.092-3.361 2.859-2.077h-3.534l-1.091-3.36-1.092 3.36zm19.894 0l2.859 2.077-1.092 3.361 2.858-2.077 2.859 2.077-1.092-3.361 2.858-2.077h-3.533l-1.092-3.36-1.092 3.36zm19.895 0l2.858 2.077-1.092 3.361 2.859-2.077 2.858 2.077-1.092-3.361 2.859-2.077h-3.533l-1.092-3.36-1.092 3.36zm-89.527 8.527l2.859 2.077-1.092 3.36 2.859-2.077 2.858 2.077-1.092-3.36 2.859-2.077h-3.534l-1.091-3.361-1.092 3.361zm19.895 0l2.859 2.077-1.092 3.36 2.858-2.077 2.859 2.077-1.092-3.36 2.858-2.077h-3.533l-1.092-3.361-1.092 3.361zm19.895 0l2.859 2.077-1.092 3.36L60 19.341l2.859 2.077-1.092-3.36 2.858-2.077h-3.533L60 12.62l-1.092 3.361zm19.895 0l2.858 2.077-1.092 3.36 2.859-2.077 2.858 2.077-1.092-3.36 2.859-2.077h-3.533l-1.092-3.361-1.092 3.361zm19.894 0l2.859 2.077-1.092 3.36 2.858-2.077 2.859 2.077-1.092-3.36 2.858-2.077h-3.533l-1.092-3.361-1.091 3.361zM5.638 24.507l2.859 2.077-1.092 3.361 2.858-2.077 2.859 2.077-1.092-3.361 2.858-2.077h-3.533l-1.092-3.36-1.092 3.36zm19.895 0l2.858 2.077-1.092 3.361 2.859-2.077 2.859 2.077-1.092-3.361 2.858-2.077H31.25l-1.092-3.36-1.092 3.36zm19.895 0l2.858 2.077-1.092 3.361 2.859-2.077 2.858 2.077-1.092-3.361 2.859-2.077h-3.533l-1.092-3.36-1.092 3.36zm19.895 0l2.858 2.077-1.092 3.361 2.859-2.077 2.858 2.077-1.092-3.361 2.859-2.077h-3.534l-1.091-3.36-1.092 3.36zm19.894 0l2.859 2.077-1.092 3.361 2.858-2.077 2.859 2.077-1.092-3.361 2.858-2.077h-3.533l-1.092-3.36-1.092 3.36zm19.895 0l2.858 2.077-1.092 3.361 2.859-2.077 2.858 2.077-1.092-3.361 2.859-2.077h-3.533l-1.092-3.36-1.092 3.36zm-89.281 8.555l2.858 2.077-1.091 3.36 2.858-2.077 2.859 2.077-1.092-3.361 2.858-2.076h-3.533l-1.092-3.361-1.092 3.361zm19.895 0l2.858 2.077-1.092 3.36 2.859-2.077 2.858 2.077-1.092-3.361 2.859-2.076h-3.533l-1.092-3.361-1.092 3.361zm19.895 0l2.858 2.077-1.092 3.36 2.859-2.077 2.858 2.077-1.092-3.361 2.859-2.076h-3.534l-1.091-3.361-1.092 3.361zm19.894 0l2.859 2.077-1.092 3.36 2.858-2.077 2.859 2.077-1.092-3.361 2.858-2.076h-3.533l-1.092-3.361-1.092 3.361zm19.895 0l2.858 2.077-1.092 3.36 2.859-2.077 2.858 2.077-1.092-3.361 2.859-2.076h-3.533l-1.092-3.361-1.092 3.361zM5.94 41.517l2.859 2.076-1.092 3.361 2.858-2.077 2.859 2.077-1.092-3.361 2.858-2.076h-3.533l-1.092-3.361-1.092 3.361zm19.895 0l2.858 2.076-1.092 3.361 2.859-2.077 2.858 2.077-1.091-3.361 2.858-2.076h-3.533l-1.092-3.361-1.092 3.361zm19.895 0l2.858 2.076-1.092 3.361 2.859-2.077 2.858 2.077-1.092-3.361 2.859-2.076h-3.533l-1.092-3.361-1.092 3.361zm19.894 0l2.859 2.076-1.092 3.361 2.858-2.077 2.859 2.077-1.092-3.361 2.859-2.076h-3.534l-1.092-3.361-1.091 3.361zm19.895 0l2.858 2.076-1.091 3.361 2.858-2.077 2.859 2.077-1.092-3.361 2.858-2.076h-3.533l-1.092-3.361-1.092 3.361zm19.895 0l2.858 2.076-1.092 3.361 2.859-2.077 2.858 2.077-1.092-3.361 2.859-2.076h-3.533l-1.092-3.361-1.092 3.361zM6.127 58.299l2.858 2.077-1.092 3.361 2.859-2.077 2.858 2.077-1.092-3.361 2.859-2.077h-3.533l-1.092-3.36-1.092 3.36zm19.894 0l2.859 2.077-1.092 3.361 2.858-2.077 2.859 2.077-1.092-3.361 2.858-2.077h-3.533l-1.092-3.36-1.092 3.36zm19.895 0l2.858 2.077-1.091 3.361 2.858-2.077 2.859 2.077-1.092-3.361 2.858-2.077h-3.533l-1.092-3.36-1.092 3.36zm19.895 0l2.858 2.077-1.092 3.361 2.859-2.077 2.858 2.077-1.091-3.361 2.858-2.077h-3.533l-1.092-3.36-1.092 3.36zm19.894 0l2.859 2.077-1.092 3.361 2.858-2.077 2.859 2.077-1.092-3.361 2.859-2.077h-3.534l-1.092-3.36-1.091 3.36zm19.895 0l2.858 2.077-1.091 3.361 2.858-2.077 2.859 2.077-1.092-3.361 2.858-2.077h-3.533l-1.092-3.36-1.092 3.36zM5.884 75.279l2.858 2.077-1.092 3.361 2.859-2.077 2.858 2.077-1.092-3.361 2.859-2.077H11.6l-1.091-3.36-1.092 3.36zm19.894 0l2.859 2.077-1.092 3.361 2.858-2.077 2.859 2.077-1.092-3.361 2.858-2.077h-3.533l-1.092-3.36-1.092 3.36zm19.895 0l2.858 2.077-1.091 3.361 2.858-2.077 2.859 2.077-1.092-3.361 2.858-2.077H51.39l-1.092-3.36-1.092 3.36zm19.895 0l2.858 2.077-1.092 3.361 2.859-2.077 2.858 2.077-1.091-3.361 2.858-2.077h-3.533l-1.092-3.36-1.092 3.36zm19.894 0l2.859 2.077-1.092 3.361 2.858-2.077 2.859 2.077-1.092-3.361 2.859-2.077h-3.534l-1.092-3.36-1.091 3.36zm19.895 0l2.858 2.077-1.091 3.361 2.858-2.077 2.859 2.077-1.092-3.361 2.858-2.077h-3.533l-1.092-3.36-1.092 3.36zM15.89 49.824l2.858 2.077-1.091 3.36 2.858-2.077 2.859 2.077-1.092-3.36 2.858-2.077h-3.533l-1.092-3.361-1.092 3.361zm19.895 0l2.858 2.077-1.092 3.36 2.859-2.077 2.858 2.077-1.091-3.36 2.858-2.077h-3.533l-1.092-3.361-1.092 3.361zm19.895 0l2.858 2.077-1.092 3.36 2.859-2.077 2.858 2.077-1.092-3.36 2.859-2.077h-3.533l-1.092-3.361-1.092 3.361zm19.894 0l2.859 2.077-1.092 3.36 2.858-2.077 2.859 2.077-1.092-3.36 2.858-2.077h-3.533l-1.092-3.361-1.092 3.361zm19.895 0l2.858 2.077-1.092 3.36 2.859-2.077 2.858 2.077-1.091-3.36 2.858-2.077h-3.533l-1.092-3.361-1.092 3.361zM15.831 66.777l2.859 2.077-1.092 3.361 2.858-2.077 2.859 2.077-1.092-3.361 2.858-2.077h-3.533l-1.092-3.36-1.092 3.36zm19.895 0l2.858 2.077-1.092 3.361 2.859-2.077 2.859 2.077-1.092-3.361 2.858-2.077h-3.533l-1.092-3.36-1.092 3.36zm19.895 0l2.858 2.077-1.092 3.361 2.859-2.077 2.858 2.077-1.092-3.361 2.859-2.077h-3.533l-1.092-3.36-1.092 3.36zm19.894 0l2.859 2.077-1.092 3.361 2.858-2.077 2.859 2.077-1.092-3.361 2.858-2.077h-3.533l-1.092-3.36-1.092 3.36zm19.895 0l2.858 2.077-1.092 3.361 2.859-2.077 2.858 2.077-1.091-3.361 2.858-2.077h-3.533l-1.092-3.36-1.092 3.36z"/></g></svg><svg viewBox="0 0 512 512" id="x-mark" xmlns="http://www.w3.org/2000/svg"><style>.jst0{display:inline}.jst1{fill:none;stroke:#000;stroke-width:16;stroke-linecap:round;stroke-linejoin:round;stroke-miterlimit:10}.jst2{display:none}</style><g class="jst2" id="jcross"><g class="jst0"><path class="jst1" d="M112.5 112.5L401 401M401 112.5L112.5 401"/></g></g><path d="M268.064 256.75l138.593-138.593a8 8 0 10-11.314-11.313L256.75 245.436 118.157 106.843a8 8 0 00-11.313 0 7.998 7.998 0 000 11.313L245.436 256.75 106.843 395.343a7.999 7.999 0 000 11.314c1.562 1.562 3.609 2.343 5.657 2.343s4.095-.781 5.657-2.343L256.75 268.064l138.593 138.593c1.563 1.562 3.609 2.343 5.657 2.343s4.095-.781 5.657-2.343a8 8 0 000-11.314L268.064 256.75z" id="jcross_copy"/></svg></svg>